<?xml version="1.0" encoding="UTF-8" standalone="no"?>
<svg
   xmlns:dc="http://purl.org/dc/elements/1.1/"
   xmlns:cc="http://creativecommons.org/ns#"
   xmlns:rdf="http://www.w3.org/1999/02/22-rdf-syntax-ns#"
   xmlns:svg="http://www.w3.org/2000/svg"
   xmlns="http://www.w3.org/2000/svg"
   xmlns:sodipodi="http://sodipodi.sourceforge.net/DTD/sodipodi-0.dtd"
   xmlns:inkscape="http://www.inkscape.org/namespaces/inkscape"
   width="46.658497mm"
   height="21.30139mm"
   viewBox="0 0 46.658497 21.30139"
   version="1.1"
   id="svg8"
   inkscape:version="1.0 (4035a4fb49, 2020-05-01)"
   sodipodi:docname="titleL.svg">
  <defs
     id="defs2" />
  <sodipodi:namedview
     id="base"
     pagecolor="#ead8bb"
     bordercolor="#666666"
     borderopacity="1.0"
     inkscape:pageopacity="0"
     inkscape:pageshadow="2"
     inkscape:zoom="2"
     inkscape:cx="66.68391"
     inkscape:cy="27.044976"
     inkscape:document-units="mm"
     inkscape:current-layer="text1416"
     inkscape:document-rotation="0"
     showgrid="false"
     inkscape:snap-bbox="true"
     inkscape:bbox-paths="true"
     inkscape:bbox-nodes="true"
     inkscape:snap-bbox-edge-midpoints="true"
     inkscape:snap-bbox-midpoints="true"
     inkscape:object-paths="true"
     inkscape:snap-intersection-paths="true"
     inkscape:snap-smooth-nodes="true"
     inkscape:snap-midpoints="true"
     inkscape:snap-object-midpoints="true"
     inkscape:snap-page="true"
     inkscape:snap-text-baseline="true"
     inkscape:snap-center="true"
     showguides="false"
     inkscape:guide-bbox="true"
     inkscape:snap-global="true"
     fit-margin-top="0"
     fit-margin-left="0"
     fit-margin-right="0"
     fit-margin-bottom="0"
     inkscape:window-width="1858"
     inkscape:window-height="1057"
     inkscape:window-x="2552"
     inkscape:window-y="-8"
     inkscape:window-maximized="1">
    <sodipodi:guide
       position="21.629827,5.0609523"
       orientation="0,-1"
       id="guide857" />
    <sodipodi:guide
       position="19.767297,3.0230222"
       orientation="1,0"
       id="guide859" />
    <sodipodi:guide
       position="21.604777,0.96003218"
       orientation="0,-1"
       id="guide861" />
    <sodipodi:guide
       position="23.484017,3.0063122"
       orientation="1,0"
       id="guide863" />
  </sodipodi:namedview>
  <metadata
     id="metadata5">
    <rdf:RDF>
      <cc:Work
         rdf:about="">
        <dc:format>image/svg+xml</dc:format>
        <dc:type
           rdf:resource="http://purl.org/dc/dcmitype/StillImage" />
        <dc:title></dc:title>
      </cc:Work>
    </rdf:RDF>
  </metadata>
  <g
     inkscape:label="レイヤー 1"
     inkscape:groupmode="layer"
     id="layer1"
     transform="translate(-80.726043,-72.092133)">
    <g
       aria-label="TSUKUCHIRI SOHOSAI 2021"
       id="text1416"
       style="font-size:10.5833px;line-height:0;font-family:sans-serif;text-align:center;text-anchor:middle;stroke-width:0.264583">
      <g
         transform="translate(-11.420426)"
         id="g899">
        <path
           id="path1418"
           style="font-style:normal;font-variant:normal;font-weight:normal;font-stretch:normal;font-size:4.23333px;line-height:2.05;font-family:Alef;-inkscape-font-specification:Alef;stroke-width:0.264583"
           d="m 92.146469,72.137613 h 2.226219 v 0.318326 h -0.913639 v 2.6541 h -0.388606 v -2.6541 h -0.923974 z" />
        <path
           id="path1420"
           style="font-style:normal;font-variant:normal;font-weight:normal;font-stretch:normal;font-size:4.23333px;line-height:2.05;font-family:Alef;-inkscape-font-specification:Alef;stroke-width:0.264583"
           d="m 94.89772,74.678024 q 0.08475,0.03307 0.177767,0.06201 0.09508,0.02894 0.192236,0.04961 0.09922,0.02067 0.198437,0.03307 0.09922,0.0124 0.194304,0.0124 0.163297,0 0.295589,-0.03721 0.132291,-0.03721 0.227376,-0.107487 0.09508,-0.07235 0.146761,-0.175699 0.05168,-0.10542 0.05168,-0.239779 0,-0.134358 -0.04961,-0.219108 -0.04754,-0.08682 -0.14056,-0.144693 -0.09095,-0.05788 -0.225309,-0.09715 -0.134359,-0.04134 -0.305924,-0.08475 -0.19017,-0.04961 -0.3514,-0.109554 -0.159163,-0.06201 -0.276985,-0.159164 -0.115755,-0.09715 -0.181901,-0.239778 -0.06615,-0.144694 -0.06615,-0.359668 0,-0.175699 0.07028,-0.318326 0.07028,-0.142627 0.198437,-0.241846 0.128158,-0.101285 0.307992,-0.155029 0.179833,-0.05374 0.396874,-0.05374 0.10542,0 0.214974,0.01447 0.109554,0.0124 0.217041,0.03514 0.107487,0.02274 0.210839,0.05581 0.103353,0.03307 0.194304,0.07235 l -0.124024,0.305925 q -0.07441,-0.02894 -0.152962,-0.05788 -0.07648,-0.02894 -0.163297,-0.05168 -0.08682,-0.02274 -0.186035,-0.03514 -0.09715,-0.01447 -0.21084,-0.01447 -0.113688,0 -0.217041,0.02481 -0.103352,0.02481 -0.183968,0.07855 -0.07855,0.05168 -0.12609,0.136426 -0.04754,0.08475 -0.04754,0.204638 0,0.134359 0.04754,0.221175 0.04961,0.08475 0.14056,0.142627 0.09302,0.05788 0.227376,0.09922 0.134359,0.03927 0.305924,0.08268 0.190169,0.04961 0.349333,0.111621 0.16123,0.05994 0.276985,0.157096 0.117822,0.09715 0.183968,0.241846 0.06615,0.144694 0.06615,0.3576 0,0.225309 -0.08475,0.392741 -0.08268,0.165364 -0.233577,0.274918 -0.148828,0.109554 -0.355533,0.163298 -0.204639,0.05374 -0.446484,0.05374 -0.45682,0 -0.886767,-0.1757 z" />
        <path
           id="path1422"
           style="font-style:normal;font-variant:normal;font-weight:normal;font-stretch:normal;font-size:4.23333px;line-height:2.05;font-family:Alef;-inkscape-font-specification:Alef;stroke-width:0.264583"
           d="m 99.339823,72.137613 h 0.388606 v 1.717723 q 0,0.649055 -0.291455,0.977717 -0.291455,0.326595 -0.895035,0.326595 -1.182356,0 -1.182356,-1.304312 v -1.717723 h 0.388607 v 1.71979 q 0,0.227376 0.03927,0.401009 0.03927,0.171565 0.128157,0.305924 0.08888,0.132292 0.24598,0.202572 0.157096,0.06821 0.380338,0.06821 0.181901,0 0.320394,-0.04548 0.140559,-0.04754 0.229443,-0.130224 0.08888,-0.08268 0.144694,-0.206706 0.05788,-0.12609 0.08062,-0.268717 0.02274,-0.144694 0.02274,-0.326595 z" />
        <path
           id="path1424"
           style="font-style:normal;font-variant:normal;font-weight:normal;font-stretch:normal;font-size:4.23333px;line-height:2.05;font-family:Alef;-inkscape-font-specification:Alef;stroke-width:0.264583"
           d="m 102.17996,72.092138 0.26251,0.210839 -1.14101,1.351855 1.24023,1.455207 h -0.46715 l -1.22163,-1.434537 v 1.434537 h -0.38861 v -2.972426 h 0.38861 v 1.529621 z" />
        <path
           id="path1426"
           style="font-style:normal;font-variant:normal;font-weight:normal;font-stretch:normal;font-size:4.23333px;line-height:2.05;font-family:Alef;-inkscape-font-specification:Alef;stroke-width:0.264583"
           d="m 105.12758,72.137613 h 0.3886 v 1.717723 q 0,0.649055 -0.29145,0.977717 -0.29146,0.326595 -0.89504,0.326595 -1.18235,0 -1.18235,-1.304312 v -1.717723 h 0.38861 v 1.71979 q 0,0.227376 0.0393,0.401009 0.0393,0.171565 0.12816,0.305924 0.0889,0.132292 0.24598,0.202572 0.15709,0.06821 0.38033,0.06821 0.18191,0 0.3204,-0.04548 0.14056,-0.04754 0.22944,-0.130224 0.0889,-0.08268 0.1447,-0.206706 0.0579,-0.12609 0.0806,-0.268717 0.0227,-0.144694 0.0227,-0.326595 z" />
        <path
           id="path1428"
           style="font-style:normal;font-variant:normal;font-weight:normal;font-stretch:normal;font-size:4.23333px;line-height:2.05;font-family:Alef;-inkscape-font-specification:Alef;stroke-width:0.264583"
           d="m 108.2633,75.025289 q -0.19223,0.05994 -0.40721,0.09715 -0.21291,0.03721 -0.46922,0.03721 -0.63252,0 -0.95498,-0.378271 -0.32246,-0.378271 -0.32246,-1.114143 0,-0.781347 0.32246,-1.178222 0.32246,-0.396874 0.95498,-0.396874 0.23978,0 0.42995,0.04134 0.19223,0.04134 0.37,0.107487 l -0.10749,0.305924 q -0.0847,-0.03101 -0.16743,-0.05581 -0.0827,-0.0248 -0.16743,-0.04134 -0.0827,-0.01654 -0.17156,-0.0248 -0.0889,-0.0083 -0.18604,-0.0083 -0.22944,0 -0.39481,0.08268 -0.16536,0.08062 -0.27285,0.237711 -0.10749,0.155029 -0.15916,0.380338 -0.0517,0.223242 -0.0517,0.508496 0,0.293522 0.0517,0.518831 0.0517,0.225309 0.15916,0.380338 0.10749,0.152962 0.27285,0.23151 0.16537,0.07855 0.39481,0.07855 0.21084,0 0.40101,-0.03514 0.19017,-0.03514 0.37827,-0.09302 z" />
        <path
           id="path1430"
           style="font-style:normal;font-variant:normal;font-weight:normal;font-stretch:normal;font-size:4.23333px;line-height:2.05;font-family:Alef;-inkscape-font-specification:Alef;stroke-width:0.264583"
           d="m 110.79544,72.137613 h 0.38861 v 2.972426 h -0.38861 v -1.473811 h -1.59576 v 1.473811 h -0.38861 v -2.972426 h 0.38861 v 1.180289 h 1.59576 z" />
        <path
           id="path1432"
           style="font-style:normal;font-variant:normal;font-weight:normal;font-stretch:normal;font-size:4.23333px;line-height:2.05;font-family:Alef;-inkscape-font-specification:Alef;stroke-width:0.264583"
           d="m 111.98194,72.137613 h 0.3886 v 2.972426 h -0.3886 z" />
        <path
           id="path1434"
           style="font-style:normal;font-variant:normal;font-weight:normal;font-stretch:normal;font-size:4.23333px;line-height:2.05;font-family:Alef;-inkscape-font-specification:Alef;stroke-width:0.264583"
           d="m 114.1048,72.137613 q 0.19637,0 0.37,0.04547 0.1757,0.04547 0.31006,0.144694 0.13643,0.101286 0.21291,0.256315 0.0785,0.155029 0.0785,0.365869 0,0.210839 -0.0785,0.365869 -0.0765,0.155029 -0.21291,0.256314 -0.10542,0.07855 -0.23564,0.121957 -0.12816,0.04341 -0.27492,0.05994 l -0.002,0.0041 q 0.06,0.03927 0.13229,0.111621 0.0724,0.07028 0.1509,0.167432 0.0786,0.09715 0.16123,0.21084 0.0827,0.111621 0.16743,0.235644 l 0.42995,0.626318 h -0.45475 l -0.46716,-0.72347 q -0.12609,-0.198437 -0.21911,-0.320393 -0.091,-0.121957 -0.17363,-0.192236 -0.0806,-0.07028 -0.16536,-0.09509 -0.0847,-0.0248 -0.19637,-0.0248 h -0.0785 v 1.355989 h -0.38447 V 72.13757 Z m 0,1.314647 q 0.13022,0 0.23771,-0.02894 0.10749,-0.02894 0.18397,-0.08888 0.0785,-0.06201 0.12196,-0.157096 0.0434,-0.09508 0.0434,-0.227376 0,-0.132292 -0.0434,-0.227376 -0.0434,-0.09508 -0.12196,-0.15503 -0.0765,-0.06201 -0.18397,-0.09095 -0.10749,-0.02894 -0.23771,-0.02894 h -0.5457 v 1.004589 z" />
        <path
           id="path1436"
           style="font-style:normal;font-variant:normal;font-weight:normal;font-stretch:normal;font-size:4.23333px;line-height:2.05;font-family:Alef;-inkscape-font-specification:Alef;stroke-width:0.264583"
           d="m 115.85146,72.137613 h 0.38861 v 2.972426 h -0.38861 z" />
      </g>
      <g
         id="g887">
        <path
           id="path1438"
           style="font-style:normal;font-variant:normal;font-weight:bold;font-stretch:normal;line-height:0.75;font-family:Alef;-inkscape-font-specification:'Alef Bold';stroke-width:0.264583"
           d="m 81.108447,84.034951 q 0.428913,0.165364 0.91467,0.279052 0.490924,0.10852 1.064531,0.10852 0.372069,0 0.682127,-0.06718 0.310057,-0.06718 0.532265,-0.211873 0.227376,-0.144694 0.351399,-0.366902 0.129191,-0.227375 0.129191,-0.5426 0,-0.341064 -0.139526,-0.542601 -0.134359,-0.201538 -0.382405,-0.330728 -0.248046,-0.129191 -0.599444,-0.217041 -0.351399,-0.08785 -0.780312,-0.19637 -0.480589,-0.124023 -0.878497,-0.284219 -0.392739,-0.160196 -0.671791,-0.41341 -0.279052,-0.253214 -0.434081,-0.625283 -0.155029,-0.372069 -0.155029,-0.919838 0,-0.366901 0.118856,-0.656288 0.124023,-0.289387 0.330728,-0.50126 0.206705,-0.21704 0.475422,-0.366901 0.273884,-0.149862 0.568439,-0.242879 0.299722,-0.09302 0.60978,-0.134358 0.310057,-0.04134 0.589109,-0.04134 0.19637,0 0.470254,0.02067 0.279052,0.02067 0.589109,0.07752 0.315226,0.05168 0.645954,0.139526 0.335896,0.08785 0.645953,0.222208 l -0.366901,0.899167 q -0.41341,-0.149862 -0.862994,-0.242879 -0.444416,-0.09302 -0.93534,-0.09302 -0.310058,0 -0.568439,0.05168 -0.258382,0.04651 -0.449584,0.155029 -0.186035,0.10852 -0.289387,0.284219 -0.103353,0.1757 -0.103353,0.423746 0,0.320393 0.124023,0.50126 0.129191,0.180867 0.366902,0.294554 0.237711,0.113688 0.578774,0.19637 0.346231,0.07752 0.780312,0.191202 0.475421,0.124023 0.873329,0.294555 0.403075,0.165364 0.692462,0.434081 0.294554,0.263549 0.459918,0.656288 0.165365,0.39274 0.165365,0.966347 0,0.506427 -0.160197,0.868161 -0.160196,0.361734 -0.418578,0.60978 -0.258381,0.242878 -0.589109,0.387572 -0.330728,0.144693 -0.671792,0.222208 -0.341063,0.07751 -0.661456,0.09819 -0.320393,0.02584 -0.563271,0.02584 -0.237711,-0.0052 -0.537433,-0.03101 -0.294555,-0.02584 -0.620116,-0.08268 -0.32556,-0.05684 -0.661456,-0.149861 -0.330728,-0.09819 -0.640785,-0.237711 z" />
        <path
           id="path1440"
           style="font-style:normal;font-variant:normal;font-weight:bold;font-stretch:normal;line-height:0.75;font-family:Alef;-inkscape-font-specification:'Alef Bold';stroke-width:0.264583"
           d="m 90.756406,77.776955 q 0.930173,0 1.570959,0.284219 0.640785,0.279052 1.038693,0.785479 0.403074,0.506428 0.578774,1.214393 0.175699,0.702797 0.175699,1.550288 0,0.847491 -0.175699,1.555455 -0.1757,0.702798 -0.578774,1.209225 -0.397908,0.506427 -1.038693,0.790647 -0.640786,0.279052 -1.570959,0.279052 -0.91467,0 -1.555456,-0.273884 -0.640785,-0.273885 -1.04386,-0.775144 -0.397907,-0.50126 -0.583942,-1.209225 -0.180867,-0.707965 -0.180867,-1.576126 0,-0.868162 0.180867,-1.576126 0.186035,-0.707965 0.583942,-1.209225 0.403075,-0.50126 1.04386,-0.775144 0.640786,-0.273884 1.555456,-0.273884 z m 0,1.059363 q -0.542601,0 -0.909502,0.175699 -0.361734,0.1757 -0.583942,0.527098 -0.21704,0.346231 -0.310058,0.868162 -0.09302,0.516762 -0.09302,1.204057 0,0.687294 0.09302,1.209224 0.09302,0.516763 0.310058,0.868162 0.222208,0.346231 0.583942,0.52193 0.366901,0.175699 0.909502,0.175699 0.537433,0 0.899167,-0.170531 0.366902,-0.1757 0.583942,-0.521931 0.222208,-0.346231 0.315225,-0.868161 0.09819,-0.52193 0.09819,-1.214392 0,-0.692462 -0.09819,-1.214393 -0.09302,-0.52193 -0.315225,-0.868161 -0.21704,-0.346231 -0.583942,-0.516763 -0.361734,-0.175699 -0.899167,-0.175699 z" />
        <path
           id="path1442"
           style="font-style:normal;font-variant:normal;font-weight:bold;font-stretch:normal;line-height:0.75;font-family:Alef;-inkscape-font-specification:'Alef Bold';stroke-width:0.264583"
           d="m 101.86164,77.890642 v 7.431048 h -1.44177 v -3.622507 h -3.286613 v 3.622507 h -1.441768 v -7.431048 h 1.441768 v 2.749178 h 3.286613 v -2.749178 z" />
        <path
           id="path1444"
           style="font-style:normal;font-variant:normal;font-weight:bold;font-stretch:normal;line-height:0.75;font-family:Alef;-inkscape-font-specification:'Alef Bold';stroke-width:0.264583"
           d="m 106.79672,77.776955 q 0.93017,0 1.57096,0.284219 0.64078,0.279052 1.03869,0.785479 0.40308,0.506428 0.57878,1.214393 0.17569,0.702797 0.17569,1.550288 0,0.847491 -0.17569,1.555455 -0.1757,0.702798 -0.57878,1.209225 -0.39791,0.506427 -1.03869,0.790647 -0.64079,0.279052 -1.57096,0.279052 -0.91467,0 -1.55546,-0.273884 -0.64078,-0.273885 -1.04386,-0.775144 -0.3979,-0.50126 -0.58394,-1.209225 -0.18087,-0.707965 -0.18087,-1.576126 0,-0.868162 0.18087,-1.576126 0.18604,-0.707965 0.58394,-1.209225 0.40308,-0.50126 1.04386,-0.775144 0.64079,-0.273884 1.55546,-0.273884 z m 0,1.059363 q -0.5426,0 -0.9095,0.175699 -0.36174,0.1757 -0.58394,0.527098 -0.21704,0.346231 -0.31006,0.868162 -0.093,0.516762 -0.093,1.204057 0,0.687294 0.093,1.209224 0.093,0.516763 0.31006,0.868162 0.2222,0.346231 0.58394,0.52193 0.3669,0.175699 0.9095,0.175699 0.53743,0 0.89917,-0.170531 0.3669,-0.1757 0.58394,-0.521931 0.22221,-0.346231 0.31522,-0.868161 0.0982,-0.52193 0.0982,-1.214392 0,-0.692462 -0.0982,-1.214393 -0.093,-0.52193 -0.31522,-0.868161 -0.21704,-0.346231 -0.58394,-0.516763 -0.36174,-0.175699 -0.89917,-0.175699 z" />
        <path
           id="path1446"
           style="font-style:normal;font-variant:normal;font-weight:bold;font-stretch:normal;line-height:0.75;font-family:Alef;-inkscape-font-specification:'Alef Bold';stroke-width:0.264583"
           d="m 111.7008,84.034951 q 0.42891,0.165364 0.91467,0.279052 0.49092,0.10852 1.06453,0.10852 0.37207,0 0.68212,-0.06718 0.31006,-0.06718 0.53227,-0.211873 0.22738,-0.144694 0.3514,-0.366902 0.12919,-0.227375 0.12919,-0.5426 0,-0.341064 -0.13953,-0.542601 -0.13435,-0.201538 -0.3824,-0.330728 -0.24805,-0.129191 -0.59945,-0.217041 -0.35139,-0.08785 -0.78031,-0.19637 -0.48059,-0.124023 -0.87849,-0.284219 -0.39274,-0.160196 -0.6718,-0.41341 -0.27905,-0.253214 -0.43408,-0.625283 -0.15502,-0.372069 -0.15502,-0.919838 0,-0.366901 0.11885,-0.656288 0.12402,-0.289387 0.33073,-0.50126 0.2067,-0.21704 0.47542,-0.366901 0.27388,-0.149862 0.56844,-0.242879 0.29972,-0.09302 0.60978,-0.134358 0.31006,-0.04134 0.58911,-0.04134 0.19637,0 0.47025,0.02067 0.27905,0.02067 0.58911,0.07752 0.31523,0.05168 0.64596,0.139526 0.33589,0.08785 0.64595,0.222208 l -0.3669,0.899167 q -0.41341,-0.149862 -0.863,-0.242879 -0.44441,-0.09302 -0.93534,-0.09302 -0.31005,0 -0.56844,0.05168 -0.25838,0.04651 -0.44958,0.155029 -0.18603,0.10852 -0.28939,0.284219 -0.10335,0.1757 -0.10335,0.423746 0,0.320393 0.12402,0.50126 0.1292,0.180867 0.36691,0.294554 0.23771,0.113688 0.57877,0.19637 0.34623,0.07752 0.78031,0.191202 0.47542,0.124023 0.87333,0.294555 0.40308,0.165364 0.69246,0.434081 0.29456,0.263549 0.45992,0.656288 0.16537,0.39274 0.16537,0.966347 0,0.506427 -0.1602,0.868161 -0.1602,0.361734 -0.41858,0.60978 -0.25838,0.242878 -0.58911,0.387572 -0.33073,0.144693 -0.67179,0.222208 -0.34106,0.07751 -0.66146,0.09819 -0.32039,0.02584 -0.56327,0.02584 -0.23771,-0.0052 -0.53743,-0.03101 -0.29456,-0.02584 -0.62012,-0.08268 -0.32556,-0.05684 -0.66145,-0.149861 -0.33073,-0.09819 -0.64079,-0.237711 z" />
        <path
           id="path1448"
           style="font-style:normal;font-variant:normal;font-weight:bold;font-stretch:normal;line-height:0.75;font-family:Alef;-inkscape-font-specification:'Alef Bold';stroke-width:0.264583"
           d="m 121.83451,77.890642 2.80603,7.431048 h -1.45727 l -0.8475,-2.284091 h -2.44945 l -0.84749,2.284091 h -1.45727 l 2.80602,-7.431048 z m -0.72346,1.534786 -0.84233,2.573478 h 1.68465 z" />
        <path
           id="path1450"
           style="font-style:normal;font-variant:normal;font-weight:bold;font-stretch:normal;line-height:0.75;font-family:Alef;-inkscape-font-specification:'Alef Bold';stroke-width:0.264583"
           d="m 127.38454,77.890642 v 7.431048 h -1.44176 v -7.431048 z" />
      </g>
      <g
         transform="translate(-14.055946)"
         id="g878">
        <g
           transform="matrix(0.00929427,0,0,0.00929427,99.975814,88.153904)"
           style="opacity:1;fill:#000000;stroke-width:28.4671"
           id="g16">
          <path
             class="st0"
             d="m 357.188,135.25 0.016,-0.016 -149.594,73.891 -72.36,148.156 -0.031,0.063 c -2.672,5.469 -1.609,12.281 2.813,16.672 4.344,4.359 11.156,5.547 16.766,2.766 h -0.016 l 148.094,-72.469 1.75,-3.531 5.094,-10.328 67.016,-135.656 0.016,-0.031 c 2.75,-5.609 1.641,-12.328 -2.766,-16.75 -4.439,-4.423 -11.173,-5.548 -16.798,-2.767 z m -178.922,198.688 0.141,-0.297 -0.281,0.141 50.609,-103.563 53.094,53.094 z"
             style="fill:#c93c2e;fill-opacity:1;stroke-width:28.4671"
             id="path4" />
          <path
             class="st0"
             d="m 256,111.766 c 7.531,0 13.641,-6.109 13.641,-13.641 0,-7.547 -6.109,-13.656 -13.641,-13.656 -7.532,0 -13.641,6.109 -13.641,13.656 0,7.531 6.11,13.641 13.641,13.641 z"
             style="fill:#000000;stroke-width:28.4671"
             id="path8" />
          <path
             class="st0"
             d="m 256,400.25 c -7.531,0 -13.641,6.094 -13.641,13.641 0,7.531 6.109,13.641 13.641,13.641 7.532,0 13.641,-6.109 13.641,-13.641 0,-7.547 -6.11,-13.641 -13.641,-13.641 z"
             style="fill:#000000;stroke-width:28.4671"
             id="path10" />
          <path
             class="st0"
             d="m 98.109,242.359 c -7.531,0 -13.641,6.109 -13.641,13.641 0,7.547 6.109,13.656 13.641,13.656 7.547,0 13.656,-6.109 13.656,-13.656 0.001,-7.531 -6.109,-13.641 -13.656,-13.641 z"
             style="fill:#000000;stroke-width:28.4671"
             id="path12" />
          <path
             class="st0"
             d="m 413.875,269.656 c 7.547,0 13.656,-6.109 13.656,-13.656 0,-7.531 -6.109,-13.641 -13.656,-13.641 -7.531,0 -13.641,6.109 -13.641,13.641 0,7.547 6.11,13.656 13.641,13.656 z"
             style="fill:#000000;stroke-width:28.4671"
             id="path14" />
        </g>
        <path
           id="path1452"
           style="font-style:normal;font-variant:normal;font-weight:normal;font-stretch:normal;line-height:0.75;font-family:Alef;-inkscape-font-specification:Alef;stroke-width:0.264583"
           d="m 94.880172,88.138046 q 0.935341,-0.475421 1.922357,-0.475421 0.382405,0 0.69763,0.08785 0.320393,0.08268 0.573607,0.263549 0.258381,0.180867 0.403075,0.490925 0.144693,0.30489 0.144693,0.713132 0,0.335896 -0.07751,0.58911 -0.144694,0.454751 -0.640786,0.759641 -0.248046,0.155029 -1.080034,0.516763 -0.01033,0.0052 -0.02584,0.0155 -0.0155,0.0052 -0.02584,0.01033 -0.01034,0 -0.02584,0.01033 -0.299723,0.129191 -0.387572,0.170532 -0.08268,0.04134 -0.273885,0.170531 -0.186034,0.129191 -0.242878,0.242879 -0.05168,0.113688 -0.113688,0.315225 -0.05684,0.201538 -0.05684,0.465086 h 2.847363 v 0.775144 h -3.736195 v -0.723467 q 0,-0.39274 0.09302,-0.702797 0.09302,-0.315226 0.23771,-0.532266 0.144694,-0.21704 0.403075,-0.403075 0.263549,-0.191202 0.516763,-0.315225 0.258381,-0.129191 0.645953,-0.28422 0.294555,-0.118855 0.444416,-0.191202 0.149861,-0.07235 0.310058,-0.191202 0.160196,-0.124023 0.222208,-0.28422 0.06718,-0.160196 0.06718,-0.382404 0,-0.439248 -0.273884,-0.640786 -0.273884,-0.201537 -0.733803,-0.201537 -0.738971,0 -1.555456,0.397907 z" />
        <path
           id="path1454"
           style="font-style:normal;font-variant:normal;font-weight:normal;font-stretch:normal;line-height:0.75;font-family:Alef;-inkscape-font-specification:Alef;stroke-width:0.264583"
           d="m 102.35773,87.67296 q 0.58911,0 1.09553,0.227376 0.50643,0.222207 0.87333,0.609779 0.36691,0.387572 0.57361,0.909503 0.21187,0.52193 0.21187,1.11104 0,0.594277 -0.21187,1.116207 -0.2067,0.52193 -0.57361,0.909502 -0.3669,0.387572 -0.87333,0.614948 -0.50642,0.222208 -1.09553,0.222208 -0.59428,0 -1.10071,-0.222208 -0.50126,-0.227376 -0.87333,-0.614948 -0.3669,-0.387572 -0.57877,-0.909502 -0.206705,-0.52193 -0.206705,-1.116207 0,-0.58911 0.206705,-1.11104 0.21187,-0.521931 0.57877,-0.909503 0.37207,-0.387572 0.87333,-0.609779 0.50643,-0.227376 1.10071,-0.227376 z m 0,0.816485 q -0.40308,0 -0.74414,0.160196 -0.34106,0.155029 -0.58911,0.434081 -0.24805,0.273884 -0.38757,0.645953 -0.13953,0.37207 -0.13953,0.800983 0,0.428913 0.13953,0.806149 0.13952,0.372069 0.38757,0.651121 0.24805,0.273885 0.58911,0.434081 0.34106,0.155029 0.74414,0.155029 0.40307,0 0.74414,-0.155029 0.34106,-0.160196 0.58394,-0.434081 0.24804,-0.279052 0.38757,-0.651121 0.13953,-0.377236 0.13953,-0.806149 0,-0.428913 -0.13953,-0.800983 -0.13953,-0.372069 -0.38757,-0.645953 -0.24288,-0.279052 -0.58394,-0.434081 -0.34107,-0.160196 -0.74414,-0.160196 z" />
        <path
           id="path1456"
           style="font-style:normal;font-variant:normal;font-weight:normal;font-stretch:normal;line-height:0.75;font-family:Alef;-inkscape-font-specification:Alef;stroke-width:0.264583"
           d="m 106.24895,88.138046 q 0.93534,-0.475421 1.92236,-0.475421 0.3824,0 0.69763,0.08785 0.32039,0.08268 0.5736,0.263549 0.25839,0.180867 0.40308,0.490925 0.14469,0.30489 0.14469,0.713132 0,0.335896 -0.0775,0.58911 -0.1447,0.454751 -0.64079,0.759641 -0.24804,0.155029 -1.08003,0.516763 -0.0103,0.0052 -0.0258,0.0155 -0.0155,0.0052 -0.0258,0.01033 -0.0103,0 -0.0258,0.01033 -0.29972,0.129191 -0.38757,0.170532 -0.0827,0.04134 -0.27388,0.170531 -0.18604,0.129191 -0.24288,0.242879 -0.0517,0.113688 -0.11369,0.315225 -0.0568,0.201538 -0.0568,0.465086 h 2.84736 v 0.775144 h -3.73619 v -0.723467 q 0,-0.39274 0.093,-0.702797 0.093,-0.315226 0.23771,-0.532266 0.1447,-0.21704 0.40308,-0.403075 0.26355,-0.191202 0.51676,-0.315225 0.25838,-0.129191 0.64595,-0.28422 0.29456,-0.118855 0.44442,-0.191202 0.14986,-0.07235 0.31006,-0.191202 0.16019,-0.124023 0.22221,-0.28422 0.0672,-0.160196 0.0672,-0.382404 0,-0.439248 -0.27389,-0.640786 -0.27388,-0.201537 -0.7338,-0.201537 -0.73897,0 -1.55546,0.397907 z" />
        <path
           id="path1458"
           style="font-style:normal;font-variant:normal;font-weight:normal;font-stretch:normal;line-height:0.75;font-family:Alef;-inkscape-font-specification:Alef;stroke-width:0.264583"
           d="m 110.96699,88.489445 1.85001,-0.82682 0.44959,0.227375 v 5.369164 h -0.89917 v -4.516505 l -1.0852,0.459918 z" />
      </g>
    </g>
  </g>
</svg>
